<svg id="Capa_1" enable-background="new 0 0 512 512" height="512" viewBox="0 0 512 512" width="512" xmlns="http://www.w3.org/2000/svg"><g><path d="m507.09 239.901-22-20c-1.833-1.666-4.049-2.852-6.452-3.453l-28.638-7.159v-10.261l23.32-15.547c4.173-2.782 6.68-7.466 6.68-12.481v-40c0-5.015-2.506-9.699-6.68-12.481l-30-20c-2.464-1.643-5.359-2.519-8.32-2.519h-21.972l-15.547-23.32c-2.782-4.174-7.466-6.68-12.481-6.68h-22.685c-9.041-10.602-29.398-30-57.315-30-34.352 0-51.501 18.057-59.087 30h-21.913c-4.044 0-7.917 1.633-10.74 4.528l-39 40c-2.731 2.802-4.26 6.559-4.26 10.472v15h-15c-3.042 0-6.012.925-8.516 2.652l-21.921 15.118-65.997-30.855-31.8-40.218c-3.961-5.009-10.659-6.96-16.691-4.865-6.032 2.096-10.075 7.782-10.075 14.168v70c0 3.978 1.581 7.793 4.394 10.606l39.566 39.566-19.738 20.396c-3.319 3.429-4.808 8.233-4.01 12.938l10 59c.926 5.463 4.789 9.971 10.046 11.723l19.742 6.583v29.188c0 6.883 4.685 12.883 11.362 14.552l31.328 7.832 7.78 30.341c1.701 6.635 7.681 11.275 14.53 11.275h111c2.961 0 5.856-.876 8.32-2.519l30-20c3.873-2.582 6.31-6.8 6.641-11.402l14.072 11.2-12.638 19.589c-1.563 2.424-2.395 5.247-2.395 8.132v40c0 8.284 6.716 15 15 15h100c2.961 0 5.856-.876 8.32-2.519l30-20c3.105-2.07 5.327-5.223 6.232-8.843l8.593-34.374 25.175-16.783c4.173-2.782 6.68-7.466 6.68-12.481v-33.501l27.259-25.556c3.025-2.836 4.741-6.797 4.741-10.943v-60c0-4.226-1.783-8.256-4.91-11.099zm-25.09 64.6-27.259 25.556c-3.025 2.836-4.741 6.797-4.741 10.943v31.972l-23.32 15.547c-3.105 2.07-5.327 5.223-6.232 8.843l-8.593 34.374-21.397 14.264h-80.458v-20.581l17.604-27.287c4.179-6.478 2.768-15.068-3.263-19.868l-49-39c-4.507-3.586-10.668-4.277-15.856-1.775-5.188 2.501-8.485 7.752-8.485 13.511v21.972l-19.542 13.028h-94.819l-7.109-27.726c-1.368-5.334-5.549-9.491-10.892-10.827l-28.638-7.158v-28.289c0-6.457-4.131-12.188-10.257-14.23l-21.458-7.153-7.227-42.64 24.721-25.546c5.695-5.884 5.618-15.248-.172-21.038l-45.607-45.606v-20.632l7.234 9.149c1.447 1.83 3.3 3.296 5.413 4.285l77 36c4.825 2.255 10.484 1.783 14.869-1.24l25.155-17.349h25.329c8.284 0 15-6.716 15-15v-23.898l30.325-31.102h24.675c6.457 0 12.188-4.131 14.23-10.257.066-.197 6.915-19.743 35.77-19.743 21.419 0 37.397 23.141 37.519 23.32 2.782 4.174 7.466 6.68 12.481 6.68h21.972l15.547 23.32c2.782 4.173 7.466 6.68 12.481 6.68h25.458l19.542 13.028v23.944l-23.32 15.547c-4.173 2.782-6.68 7.466-6.68 12.481v30c0 6.883 4.685 12.883 11.362 14.552l36.34 9.085 14.298 12.999z"/></g></svg>